<svg xmlns="http://www.w3.org/2000/svg" width="329" height="462" viewBox="0 0 329 462" version="1.1"><path d="M 47.663 7.934 C 33.745 21.098, 26.092 52.451, 32.604 69.631 C 34.036 73.409, 36.077 79.200, 37.139 82.500 C 38.201 85.800, 40.179 91.277, 41.535 94.671 C 44.469 102.014, 44.670 106.951, 42.162 110.048 C 39.794 112.972, 38.171 111.919, 37.375 106.943 C 35.962 98.109, 32.044 104.357, 31.251 116.709 C 30.408 129.831, 31.476 131.212, 52 143.515 C 69.020 153.717, 70.899 155.993, 72.427 168.248 C 73.830 179.506, 69.476 187.336, 60.570 189.572 C 55.488 190.847, 57.581 193, 63.902 193 L 69.805 193 59.662 202.750 C 44.841 216.997, 42.177 221.079, 50.897 216.178 C 54.795 213.987, 59.992 213.448, 65.875 214.625 C 70.378 215.526, 69.733 216.625, 63.877 218.030 C 53.092 220.617, 34 230.190, 34 233.010 C 34 233.435, 37.263 233.748, 41.250 233.706 C 47.348 233.641, 63 237.133, 63 238.559 C 63 240.405, 50.902 242.190, 35.789 242.574 C 14.813 243.107, 5.021 245.211, 12.637 247.548 C 16.274 248.664, 29.596 255.213, 36 259.033 C 56.917 271.509, 83.572 259.408, 94.383 232.527 C 103.218 210.562, 86.133 152.624, 66.752 138.824 C 62.294 135.649, 62.400 137.383, 66.961 142.230 C 76.523 152.391, 81.909 162.930, 84.458 176.466 C 89.516 203.332, 89.094 220.042, 83.239 224.670 C 79.707 227.463, 74.378 229.735, 70 230.316 L 65.500 230.912 69.764 228.991 C 74.669 226.781, 82.698 220.876, 84.717 217.994 C 86.263 215.787, 84.794 214.575, 74.257 209.365 L 69.014 206.772 72.876 203.975 C 80.203 198.667, 87.524 183, 82.677 183 C 81.842 183, 80.931 180.692, 80.209 176.750 C 77.073 159.610, 68.608 148.255, 51.500 138.242 C 35.559 128.911, 36.388 129.598, 35.152 124.690 C 33.944 119.892, 33.579 111, 34.590 111 C 34.914 111, 35.927 111.861, 36.840 112.913 C 39.522 116.004, 42.560 116.389, 44.852 113.928 L 46.861 111.772 47.918 115.694 C 49.560 121.794, 58.617 125.300, 62.267 121.250 C 66.142 116.950, 64.317 105.250, 58.428 96.650 C 46.410 79.098, 40.881 66.089, 40.245 53.868 C 39.093 31.721, 47.539 20.935, 60.839 27.570 C 65.112 29.701, 67.517 28.681, 70.594 23.431 L 73.194 18.994 89.390 35.747 C 98.298 44.961, 108.801 55.875, 112.731 60 L 119.875 67.500 134.688 67.500 C 148.477 67.500, 149.835 67.671, 154.347 69.976 L 159.195 72.452 156.147 73.242 C 151.659 74.405, 151.627 75.450, 156.020 77.389 C 166.087 81.830, 173.774 92.500, 166.907 92.500 C 161.560 92.500, 162.305 93.742, 171.203 99.664 C 184.065 108.225, 185.266 109.603, 184.578 115 C 182.480 131.447, 182.820 136.375, 186.660 145.218 C 188.862 150.288, 203.321 153.279, 241.243 156.510 C 255.297 157.707, 255.562 158.075, 245.407 162.301 C 235.423 166.456, 228.501 168, 219.864 168 C 211.504 168, 212.578 166.317, 221.075 166.102 C 224.966 166.004, 228.903 165.521, 229.825 165.028 C 230.746 164.536, 234.313 163.560, 237.750 162.860 C 246.430 161.093, 246.162 159.011, 237.250 158.966 C 233.537 158.947, 226.900 158.076, 222.500 157.029 C 218.100 155.983, 214.145 155.475, 213.712 155.902 C 213.278 156.328, 208.876 155.916, 203.929 154.987 C 190.923 152.543, 192.368 157.228, 207.306 165.934 L 212.112 168.735 206.806 169.408 C 203.888 169.779, 198.912 170.343, 195.750 170.661 C 189.021 171.339, 188.959 171.523, 193.360 177.748 C 195.207 180.361, 197.951 184.639, 199.457 187.253 L 202.194 192.006 195.184 188.253 C 186.813 183.772, 186.233 184.058, 189.407 191.098 C 191.714 196.216, 192.574 201.405, 192.042 207 C 191.865 208.862, 191.376 208.115, 190.128 204.075 C 188.156 197.693, 186.048 196.242, 185.900 201.167 C 185.712 207.457, 184.480 210.113, 183.575 206.179 C 183.022 203.780, 182.390 203.020, 181.294 203.441 C 180.164 203.874, 179.955 203.574, 180.475 202.261 C 180.859 201.293, 181.826 197.350, 182.626 193.500 C 183.425 189.650, 184.316 185.713, 184.607 184.750 C 185.696 181.141, 183.150 183.168, 181.540 187.192 C 180.617 189.498, 178.955 192.659, 177.845 194.218 L 175.828 197.050 172.164 191.606 C 157.062 169.168, 143.020 156.433, 147.986 169.681 C 155.660 190.149, 157.464 218.045, 152.400 237.926 C 151.042 243.257, 151.215 245.276, 152.873 243.433 C 154.025 242.152, 162.610 221.175, 163.432 217.632 C 164.940 211.133, 164.680 216.273, 162.933 227.500 C 160.396 243.810, 160.408 245.379, 163.057 243.758 C 166.682 241.540, 175.911 220.787, 178.486 209.063 C 179.912 202.573, 180.797 205.517, 180.937 217.214 C 181.105 231.234, 181.085 231.175, 184.364 227.365 C 187.555 223.658, 187.672 223.830, 190.826 236.907 C 192.297 243.007, 193.795 247.998, 194.155 247.998 C 197.622 248.007, 203.728 229.244, 204.841 215.160 L 205.500 206.820 210.150 211.410 C 215.529 216.720, 217.340 217.255, 216.377 213.250 C 215.253 208.578, 208.411 188.822, 205.729 182.506 C 202.002 173.729, 213.966 170.846, 223.988 178.106 C 228.011 181.021, 228.251 183.801, 224.349 182.304 C 218.314 179.988, 226.647 194.663, 237.520 205.500 C 245.339 213.292, 256.837 219, 264.717 219 C 267.508 219, 268.037 219.321, 267.604 220.750 C 266.044 225.896, 264.867 233.165, 264.694 238.728 C 264.453 246.527, 263.459 246.330, 259.060 237.611 C 255.897 231.342, 255.549 230.983, 254.728 233.147 C 253.161 237.283, 254.854 246.927, 257.938 251.420 C 271.831 271.663, 272.316 291.587, 259.293 307.064 C 254.625 312.611, 259.553 311.898, 267.080 305.937 C 271.855 302.155, 272 302.195, 272 307.304 C 272 321.617, 285.643 331.907, 307.273 333.910 C 320.523 335.137, 329.879 333.184, 318.250 331.618 C 311.698 330.736, 303.723 326.824, 301.171 323.240 L 299.041 320.249 302.839 319.642 C 309.289 318.610, 324.180 307.718, 322.611 305.179 C 322.225 304.556, 320.588 304.571, 318.023 305.222 C 312.910 306.520, 304.252 305.439, 300.246 303.003 L 297.123 301.104 302.449 290.802 C 311.087 274.093, 311.667 270.988, 305.686 273.487 C 300.939 275.470, 297.443 275.514, 301 273.546 C 303.766 272.015, 303.564 270.691, 300.500 270.276 C 295.433 269.589, 281.186 262.914, 276.609 259.083 C 268.784 252.534, 269.382 233.709, 277.884 218.964 C 282.732 210.554, 282.655 210.274, 275.920 211.829 C 270.540 213.071, 266.297 213.370, 267.225 212.442 C 267.532 212.135, 271.721 211.246, 276.533 210.467 C 290.194 208.256, 289.543 207.214, 272.500 204.023 C 248.442 199.519, 243.169 194.499, 261.716 193.756 C 278.858 193.070, 284.103 190.911, 271.750 189.626 C 259.368 188.338, 253.789 185.808, 245.250 177.609 C 239.834 172.409, 239.007 171, 241.373 171 C 246.331 171, 270.015 155.401, 269.984 152.155 C 269.969 150.495, 258.278 142.433, 246.500 135.963 C 243.200 134.150, 232.850 127.402, 223.500 120.968 C 214.150 114.534, 205.051 108.530, 203.281 107.625 C 201.479 106.705, 198.211 103.231, 195.862 99.740 C 185.915 84.957, 153.740 59.073, 147.034 60.460 C 136.401 62.660, 126.712 62.894, 123.076 61.039 C 113.046 55.922, 80.226 23.841, 70.168 9.322 C 65.120 2.035, 54.587 1.386, 47.663 7.934 M 54.877 7.352 C 55.493 8.094, 56.283 10.789, 56.633 13.340 C 57.303 18.227, 58.093 19.324, 61.750 20.445 C 64.730 21.359, 65.124 12.507, 62.250 9.220 C 60.218 6.896, 52.976 5.061, 54.877 7.352 M 74 40.980 C 74 41.518, 75.688 42.829, 77.750 43.892 C 92.467 51.477, 112 91.289, 112 113.701 C 112 117.776, 112.423 118.435, 119.077 124.711 C 127.099 132.279, 134.552 145.755, 137.627 158.250 C 141.196 172.755, 141.862 159.665, 138.425 142.568 C 137.659 138.755, 137.185 135.482, 137.372 135.295 C 138.356 134.310, 167.148 168.558, 172.674 177.287 C 176.001 182.542, 177.081 181.142, 175.405 173.746 C 171.907 158.319, 165.171 142.408, 157.413 131.250 L 153.067 125 156.533 125 C 164.061 125, 142.581 116.324, 125.811 112.591 C 123.479 112.072, 123.038 111.361, 122.492 107.246 C 119.654 85.867, 117.870 81.636, 104.886 65.500 C 92.492 50.096, 74 35.416, 74 40.980 M 121.001 80.177 C 121 82.351, 124.360 84.942, 130.822 87.750 C 133.670 88.987, 138.341 91.013, 141.202 92.250 C 144.063 93.487, 148.783 95.927, 151.692 97.671 C 157.846 101.361, 159.725 100.421, 154.411 96.310 C 148.219 91.520, 143.547 86.029, 142.418 82.215 L 141.336 78.559 131.170 78.530 C 122.310 78.504, 121.003 78.716, 121.001 80.177 M 172.766 106.859 C 173.219 109.947, 171.500 110.958, 165.750 110.986 C 162.293 111.004, 162.313 111.454, 165.955 115.601 C 168.806 118.849, 172.984 129.946, 173.015 134.355 C 173.024 135.535, 173.448 137.160, 173.958 137.966 C 176.583 142.116, 177.845 125.022, 175.481 117.346 C 174.976 115.708, 175.317 115.034, 176.909 114.529 C 179.527 113.698, 179.559 111.429, 177.011 107.250 C 174.497 103.127, 172.187 102.914, 172.766 106.859 M 113.667 135.667 C 113.300 136.033, 113 137.983, 113 140 C 113 149.368, 108.768 162.687, 99.370 182.896 C 94.205 194.002, 94.377 193, 97.632 193 C 100.675 193, 106.134 189.961, 110.625 185.768 L 113.751 182.849 114.455 189.675 C 116.543 209.911, 122.960 226.413, 123.039 211.750 L 123.079 204.500 127.312 212.838 C 132.181 222.430, 136.168 227.506, 143.200 233.064 C 150.281 238.661, 152.051 238.200, 147.466 231.953 C 137.975 219.024, 136.624 193.225, 144.471 174.750 C 144.918 173.698, 144.778 173, 144.121 173 C 142.581 173, 137.566 183.315, 135.478 190.777 C 134.512 194.230, 133.553 196.886, 133.347 196.680 C 131.538 194.871, 123.292 168.558, 120.957 157.146 C 116.497 135.340, 115.862 133.471, 113.667 135.667 M 190.675 155.658 C 190.313 156.020, 190.493 156.889, 191.074 157.589 C 191.655 158.289, 192.389 161.368, 192.705 164.431 C 193.300 170.197, 194.499 171.529, 195.837 167.912 C 196.531 166.035, 196.742 165.984, 197.927 167.412 C 199.548 169.365, 201 169.466, 201 167.626 C 201 166.120, 193.072 155, 191.999 155 C 191.633 155, 191.037 155.296, 190.675 155.658 M 212.485 226.750 C 214.158 233.308, 215.968 242.695, 216.004 245 C 216.031 246.747, 217.227 248.338, 219.976 250.282 C 234.358 260.456, 243 274.162, 243 286.799 C 243 287.037, 241.164 283.564, 238.921 279.082 C 231.860 264.974, 217.946 250.087, 211.750 250.009 C 209.915 249.986, 211.300 252.892, 214.632 256.054 C 227.582 268.343, 227.570 294.489, 214.607 310.336 L 212.287 313.173 211.733 304.336 C 210.847 290.238, 205.464 278.333, 195.187 267.750 C 187.985 260.332, 187.737 260.849, 192.475 273.407 C 198.838 290.272, 196.842 311.954, 188.684 314.590 C 182.260 316.666, 176.750 325.014, 176.750 332.672 L 176.750 337.960 173.856 334.319 C 164.921 323.076, 168.602 299.481, 181.750 283.709 C 184.795 280.056, 185.759 278, 184.425 278 C 182.662 278, 169.730 287.455, 165.156 292.087 L 159.812 297.500 163.067 291.500 C 166.495 285.179, 170.717 278.613, 176.387 270.784 C 180.878 264.583, 181.787 258.430, 179.314 250.970 C 176.975 243.916, 174.719 243.625, 174.282 250.322 C 173.696 259.305, 168.607 266.151, 158.856 271.073 L 152.814 274.123 153.577 270.811 C 155.011 264.588, 154.119 256.878, 151.434 252.297 C 148.254 246.871, 147.003 246.857, 146.990 252.250 C 146.976 258.373, 143.256 265.496, 135.335 274.568 C 127.558 283.475, 123.553 289.491, 119.067 299 C 114.631 308.405, 115.193 311.686, 119.926 304.013 C 123.114 298.843, 126.063 297.533, 123.063 302.619 C 111.895 321.547, 102.758 365.186, 106.877 379.926 C 108.257 384.864, 109.999 383.429, 110.024 377.333 C 110.067 367.190, 111.655 362.647, 121.504 344.500 C 123.593 340.650, 125.360 337.412, 125.431 337.304 C 125.502 337.196, 125.382 340.238, 125.166 344.065 C 124.250 360.278, 126.846 368.898, 137.493 385 C 140.948 390.225, 144.366 396.188, 145.089 398.250 C 147.130 404.081, 148.033 402.695, 147.368 394.750 C 146.965 389.941, 147.356 383.652, 148.527 376.072 L 150.293 364.644 152.910 367.572 C 154.349 369.182, 158.895 373.360, 163.013 376.856 C 171.975 384.465, 182.073 398.925, 187.693 412.198 C 191.184 420.442, 193.985 424.062, 192.599 418.537 C 192.259 417.183, 191.346 412.795, 190.570 408.787 C 188.917 400.244, 184.727 386.700, 181.434 379.255 C 178.551 372.736, 178.704 372.747, 188.480 379.773 C 211.740 396.489, 213.269 426.950, 191.990 449.696 C 186.714 455.335, 188.677 456.218, 197 451.948 C 220.832 439.721, 239.390 403.744, 234.448 379.351 C 234.171 377.983, 238.648 381.821, 246.756 389.901 C 257.785 400.893, 264.985 406.348, 266.484 404.849 C 266.716 404.618, 264.710 399.986, 262.027 394.555 C 257.183 384.748, 255 376.544, 255 368.142 L 255 363.949 257.750 365.370 C 272.747 373.122, 300.755 373.578, 309.250 366.208 C 312.091 363.744, 311.334 363.200, 305.059 363.200 C 288.404 363.200, 262.245 347.826, 253.828 333.091 C 251.406 328.852, 249.712 328.300, 249.203 331.583 C 247.815 340.536, 245.754 341.708, 232.332 341.176 L 224.164 340.853 225.582 337.459 C 227.509 332.846, 227.463 327, 225.500 327 C 224.675 327, 224 327.714, 224 328.587 C 224 333.379, 213.807 342.687, 209.472 341.852 C 201.276 340.274, 213.679 327.680, 229.500 321.514 C 240.628 317.178, 243.560 315.269, 246.452 310.478 L 248.724 306.713 249.382 310.222 C 249.744 312.152, 249.758 314.467, 249.413 315.366 C 248.599 317.488, 250.362 317.474, 252.128 315.344 C 254.499 312.482, 253.835 288.544, 251.063 277 C 246.567 258.272, 232.930 237.637, 218.100 227.120 C 212.671 223.270, 211.579 223.198, 212.485 226.750 M 118.650 237.750 C 118.123 247.169, 115.338 262.323, 115.067 257.250 C 114.911 254.331, 112.865 256.466, 109.318 263.250 C 104.363 272.727, 91.609 286.007, 79.640 294.151 C 74.613 297.572, 67.125 303.593, 63 307.531 C 46.050 323.713, 38.902 327.577, 44.529 317.515 C 53.272 301.881, 63.262 292.295, 81.165 282.361 C 93.861 275.316, 94.245 273.399, 82.339 276.500 C 76.339 278.063, 54.151 278.510, 50.668 277.138 C 46.798 275.613, 59.475 272.785, 66.708 273.559 C 74.347 274.377, 74.598 273.037, 67.400 269.853 C 61.773 267.364, 48.446 267.187, 42 269.517 C 35.053 272.027, 23.789 272.656, 22.105 270.627 C 20.381 268.549, 19 268.545, 19 270.618 C 19 275.935, 31.988 282.976, 44.788 284.598 L 50.076 285.268 45.099 288.619 C 39.709 292.249, 32.859 301.115, 28.408 310.222 C 24.839 317.522, 25.389 317.909, 32.604 313.172 C 39.879 308.395, 43.199 306.993, 40.808 309.707 C 32.300 319.363, 23.961 346.305, 31.773 338.898 C 34.373 336.433, 39.200 332.656, 42.500 330.505 C 45.800 328.354, 49.666 325.805, 51.092 324.841 L 53.684 323.089 52.273 328.294 C 50.642 334.308, 49.400 356.989, 50.407 362.358 C 51.276 366.989, 52.717 367.028, 53.577 362.442 C 53.944 360.485, 57.143 354.523, 60.685 349.192 C 68.248 337.812, 72.255 329.736, 74.347 321.653 C 75.927 315.550, 77 313.432, 77 316.417 C 77 319.140, 79.243 317.728, 80.431 314.256 C 82.074 309.455, 87.073 302.952, 92.807 298.157 C 98.979 292.995, 99.595 294.429, 94.473 302.040 C 90.158 308.453, 90.541 309.045, 96.676 305.450 C 114.108 295.234, 123.986 270.354, 122.660 240 C 121.873 221.982, 119.603 220.709, 118.650 237.750 M 98.385 319.164 C 93.187 323.064, 86.917 329.409, 83.231 334.500 C 81.239 337.250, 74.298 345.002, 67.805 351.726 C 61.312 358.451, 56 364.638, 56 365.476 C 56 367.501, 56.939 367.397, 59.436 365.099 C 60.571 364.054, 66.225 361.620, 72 359.690 C 88.445 354.197, 94.906 347.324, 100.958 328.890 C 102.089 325.446, 103.686 321.603, 104.507 320.349 C 105.328 319.096, 106 317.830, 106 317.535 C 106 316.153, 100.962 317.231, 98.385 319.164 M 256 320.400 C 256 320.619, 257.637 323.207, 259.638 326.150 C 261.639 329.092, 264.624 334.349, 266.271 337.832 C 268.860 343.307, 269.552 344.076, 271.383 343.514 C 284.186 339.584, 290.055 340.238, 303.878 347.131 C 309.720 350.044, 314.837 352.594, 315.250 352.797 C 317.164 353.740, 315.705 350.099, 313.250 347.807 C 300.458 335.865, 256 314.581, 256 320.400 M 265 376.500 C 265 377.325, 265.427 378, 265.949 378 C 274.033 378, 275.758 412.285, 268.543 429.552 C 266.155 435.267, 267.460 435.623, 273.846 430.996 C 282.451 424.763, 287.925 411.970, 288.322 397.167 L 288.500 390.500 291.686 390.191 C 293.439 390.022, 296.293 390.617, 298.029 391.515 C 302.714 393.938, 302.876 392.487, 298.435 387.895 C 290.050 379.226, 265 370.689, 265 376.500" stroke="none" fill="#000000" fill-rule="evenodd"/></svg>